<?xml version="1.0" standalone="no"?>
<!DOCTYPE svg PUBLIC "-//W3C//DTD SVG 20010904//EN"
 "http://www.w3.org/TR/2001/REC-SVG-20010904/DTD/svg10.dtd">
<svg version="1.0" xmlns="http://www.w3.org/2000/svg"
 width="128.000000pt" height="128.000000pt" viewBox="0 0 128.000000 128.000000"
 preserveAspectRatio="xMidYMid meet">
<metadata>
Created by potrace 1.11, written by Peter Selinger 2001-2013
</metadata>
<g transform="translate(0.000000,128.000000) scale(0.100000,-0.100000)"
fill="#000000" stroke="none">
<path d="M178 1080 l-23 -6 -5 -329 -5 -330 -52 -85 c-29 -47 -53 -95 -53
-107 0 -27 -75 -24 636 -25 298 -1 546 2 553 6 20 13 12 36 -45 132 l-57 95 1
314 c0 261 -2 316 -14 326 -11 9 -132 12 -464 13 -247 1 -459 -1 -472 -4z"/>
</g>
</svg>
